{"title":"Modern Family S05E18 HDTV x264 AAC [GWC].mp4","uid":9835452,"size":82135272,"categoryP":"video","categoryS":"tv_shows","magnet":"?xt=urn:btih:c35d997741cfe3f9008a6516c7f63096e15c8e71&amp;dn=Modern+Family+S05E18+HDTV+x264+AAC+%5BGWC%5D.mp4&amp;tr=udp%3A%2F%2Ftracker.openbittorrent.com%3A80&amp;tr=udp%3A%2F%2Fopen.demonii.com%3A1337&amp;tr=udp%3A%2F%2Ftracker.coppersurfer.tk%3A6969&amp;tr=udp%3A%2F%2Fexodus.desync.com%3A6969","seeders":2,"leechers":0,"uploader":"canc232","files":1,"time":1395899309,"description":"Modern Family S05E18 HDTV x264 AAC [GWC] \n\n\nSTORYLINE :\nThree different, but related families face trials and tribulations in their own uniquely comedic ways.\n\n\nSCREENS : &lt;a href=&quot;\nhttp://i.imgur.com/Iwilalh.jpg&quot; rel=&quot;nofollow&quot; target=&quot;_NEW&quot;&gt;\nhttp://i.imgur.com/Iwilalh.jpg&lt;/a&gt; &lt;a href=&quot;\nhttp://i.imgur.com/MzP5X8H.jpg&quot; rel=&quot;nofollow&quot; target=&quot;_NEW&quot;&gt;\nhttp://i.imgur.com/MzP5X8H.jpg&lt;/a&gt; &lt;a href=&quot;\nhttp://i.imgur.com/zjUupli.jpg&quot; rel=&quot;nofollow&quot; target=&quot;_NEW&quot;&gt;\nhttp://i.imgur.com/zjUupli.jpg&lt;/a&gt;\n\n\nMEDIA INFO :\nGeneral \nFormat : MPEG-4 \nFormat profile : Base Media \nFile size : 78.3 MiB \nDuration : 21mn 3s \nOverall bit rate mode : Variable \nOverall bit rate : 520 Kbps \n\nVideo \nFormat : AVC \nFormat profile : &lt;a class=&quot;__cf_email__&quot; href=&quot;/cdn-cgi/l/email-protection&quot; data-cfemail=&quot;4e062729260e027d607e&quot;&gt;[email&amp;#160;protected]&lt;/a&gt;&lt;script cf-hash='f9e31' type=&quot;text/javascript&quot;&gt;\n/* &lt;![CDATA[ */!function(){try{var t=&quot;currentScript&quot;in document?document.currentScript:function(){for(var t=document.getElementsByTagName(&quot;script&quot;),e=t.length;e--;)if(t[e].getAttribute(&quot;cf-hash&quot;))return t[e]}();if(t&amp;&amp;t.previousSibling){var e,r,n,i,c=t.previousSibling,a=c.getAttribute(&quot;data-cfemail&quot;);if(a){for(e=&quot;&quot;,r=parseInt(a.substr(0,2),16),n=2;a.length-n;n+=2)i=parseInt(a.substr(n,2),16)^r,e+=String.fromCharCode(i);e=document.createTextNode(e),c.parentNode.replaceChild(e,c)}}}catch(u){}}();/* ]]&gt; */&lt;/script&gt; \nFormat settings, CABAC : No \nFormat settings, ReFrames : 4 frames \nDuration : 21mn 3s \nWidth : 720 pixels \nHeight : 400 pixels \nDisplay aspect ratio : 16:9 \nFrame rate : 23.976 fps \nStream size : 68.8 MiB (88%) \nTitle : Modern Family S05E18 HDTV x264 AAC [GWC] \nWriting library : x264 core\n\nAudio \nFormat : AAC \nFormat profile : HE-AAC / LC \nDuration : 21mn 3s \nBit rate mode : Variable \nChannel(s) : 2 channels \nSampling rate : 48.0 KHz / 24.0 KHz \nStream size : 9.04 MiB (12%) \nLanguage : English \n\n","torrent":{"xt":"urn:btih:c35d997741cfe3f9008a6516c7f63096e15c8e71","amp;dn":"Modern+Family+S05E18+HDTV+x264+AAC+%5BGWC%5D.mp4","amp;tr":["udp%3A%2F%2Ftracker.openbittorrent.com%3A80","udp%3A%2F%2Fopen.demonii.com%3A1337","udp%3A%2F%2Ftracker.coppersurfer.tk%3A6969","udp%3A%2F%2Fexodus.desync.com%3A6969"],"infoHash":"c35d997741cfe3f9008a6516c7f63096e15c8e71","infoHashBuffer":{"type":"Buffer","data":[195,93,153,119,65,207,227,249,0,138,101,22,199,246,48,150,225,92,142,113]},"announce":[],"urlList":[]}}